HIERARCHY
ROOT hip
{
  OFFSET 0 0 0
  CHANNELS 6 Xposition Yposition Zposition Zrotation Yrotation Xrotation
  JOINT abdomen
  {
    OFFSET 0 20.6881 -0.73152
    CHANNELS 3 Zrotation Xrotation Yrotation
    JOINT chest
    {
      OFFSET 0 11.7043 -0.48768
      CHANNELS 3 Zrotation Xrotation Yrotation
      JOINT neck
      {
        OFFSET 0 22.1894 -2.19456
        CHANNELS 3 Zrotation Xrotation Yrotation
        JOINT head
        {
          OFFSET -0.24384 7.07133 1.2192
          CHANNELS 3 Zrotation Xrotation Yrotation
          JOINT leftEye
          {
            OFFSET 4.14528 8.04674 8.04672
            CHANNELS 3 Zrotation Xrotation Yrotation
            End Site
            {
              OFFSET 1 0 0
            }
          }
          JOINT rightEye
          {
            OFFSET -3.6576 8.04674 8.04672
            CHANNELS 3 Zrotation Xrotation Yrotation
            End Site
            {
              OFFSET 1 0 0
            }
          }
        }
      }
      JOINT rCollar
      {
        OFFSET -2.68224 19.2634 -4.8768
        CHANNELS 3 Zrotation Xrotation Yrotation
        JOINT rShldr
        {
          OFFSET -8.77824 -1.95073 1.46304
          CHANNELS 3 Zrotation Xrotation Yrotation
          JOINT rForeArm
          {
            OFFSET -28.1742 -1.7115 0.48768
            CHANNELS 3 Zrotation Xrotation Yrotation
            JOINT rHand
            {
              OFFSET -22.5879 0.773209 7.07136
              CHANNELS 3 Zrotation Xrotation Yrotation
              JOINT rThumb1
              {
                OFFSET -1.2192 -0.487915 3.41376
                CHANNELS 3 Zrotation Xrotation Yrotation
                JOINT rThumb2
                {
                  OFFSET -3.37035 -0.52449 3.41376
                  CHANNELS 3 Zrotation Xrotation Yrotation
                  End Site
                  {
                    OFFSET -1.78271 -1.18214 1.43049
                  }
                }
              }
              JOINT rIndex1
              {
                OFFSET -7.75947 0.938293 5.60832
                CHANNELS 3 Zrotation Xrotation Yrotation
                JOINT rIndex2
                {
                  OFFSET -2.54057 -0.884171 1.56538
                  CHANNELS 3 Zrotation Xrotation Yrotation
                  End Site
                  {
                    OFFSET -1.62519 -0.234802 1.16502
                  }
                }
              }
              JOINT rMid1
              {
                OFFSET -8.24714 1.18213 3.41376
                CHANNELS 3 Zrotation Xrotation Yrotation
                JOINT rMid2
                {
                  OFFSET -3.10165 -0.590103 1.0647
                  CHANNELS 3 Zrotation Xrotation Yrotation
                  End Site
                  {
                    OFFSET -2.48547 -0.328903 0.83742
                  }
                }
              }
              JOINT rRing1
              {
                OFFSET -8.82822 0.546677 1.51678
                CHANNELS 3 Zrotation Xrotation Yrotation
                JOINT rRing2
                {
                  OFFSET -2.60934 -0.819778 -0.0198488
                  CHANNELS 3 Zrotation Xrotation Yrotation
                  End Site
                  {
                    OFFSET -2.33842 -0.294052 0.168128
                  }
                }
              }
              JOINT rPinky1
              {
                OFFSET -8.27202 -0.0477905 -0.4584
                CHANNELS 3 Zrotation Xrotation Yrotation
                JOINT rPinky2
                {
                  OFFSET -1.82734 -0.647385 -0.700984
                  CHANNELS 3 Zrotation Xrotation Yrotation
                  End Site
                  {
                    OFFSET -1.69225 -0.51767 -0.607171
                  }
                }
              }
            }
          }
        }
      }
      JOINT lCollar
      {
        OFFSET 2.68224 19.2634 -4.8768
        CHANNELS 3 Zrotation Xrotation Yrotation
        JOINT lShldr
        {
          OFFSET 8.77824 -1.95073 1.46304
          CHANNELS 3 Zrotation Xrotation Yrotation
          JOINT lForeArm
          {
            OFFSET 28.1742 -1.7115 0.48768
            CHANNELS 3 Zrotation Xrotation Yrotation
            JOINT lHand
            {
              OFFSET 22.5879 0.773209 7.07136
              CHANNELS 3 Zrotation Xrotation Yrotation
              JOINT lThumb1
              {
                OFFSET 1.2192 -0.487915 3.41376
                CHANNELS 3 Zrotation Xrotation Yrotation
                JOINT lThumb2
                {
                  OFFSET 3.37035 -0.52449 3.41376
                  CHANNELS 3 Zrotation Xrotation Yrotation
                  End Site
                  {
                    OFFSET 1.78271 -1.18214 1.43049
                  }
                }
              }
              JOINT lIndex1
              {
                OFFSET 7.75947 0.938293 5.60832
                CHANNELS 3 Zrotation Xrotation Yrotation
                JOINT lIndex2
                {
                  OFFSET 2.54057 -0.884171 1.56538
                  CHANNELS 3 Zrotation Xrotation Yrotation
                  End Site
                  {
                    OFFSET 1.62519 -0.234802 1.16502
                  }
                }
              }
              JOINT lMid1
              {
                OFFSET 8.24714 1.18213 3.41376
                CHANNELS 3 Zrotation Xrotation Yrotation
                JOINT lMid2
                {
                  OFFSET 3.10165 -0.590103 1.0647
                  CHANNELS 3 Zrotation Xrotation Yrotation
                  End Site
                  {
                    OFFSET 2.48547 -0.328903 0.83742
                  }
                }
              }
              JOINT lRing1
              {
                OFFSET 8.82822 0.546677 1.51678
                CHANNELS 3 Zrotation Xrotation Yrotation
                JOINT lRing2
                {
                  OFFSET 2.60934 -0.819778 -0.0198488
                  CHANNELS 3 Zrotation Xrotation Yrotation
                  End Site
                  {
                    OFFSET 2.33842 -0.294052 0.168128
                  }
                }
              }
              JOINT lPinky1
              {
                OFFSET 8.27202 -0.0477905 -0.4584
                CHANNELS 3 Zrotation Xrotation Yrotation
                JOINT lPinky2
                {
                  OFFSET 1.82734 -0.647385 -0.700984
                  CHANNELS 3 Zrotation Xrotation Yrotation
                  End Site
                  {
                    OFFSET 1.69225 -0.51767 -0.607171
                  }
                }
              }
            }
          }
        }
      }
    }
  }
  JOINT rButtock
  {
    OFFSET -8.77824 4.35084 1.2192
    CHANNELS 3 Zrotation Xrotation Yrotation
    JOINT rThigh
    {
      OFFSET 0 -1.70687 -2.19456
      CHANNELS 3 Zrotation Xrotation Yrotation
      JOINT rShin
      {
        OFFSET 0 -36.8199 0.73152
        CHANNELS 3 Zrotation Xrotation Yrotation
        JOINT rFoot
        {
          OFFSET 0.73152 -45.1104 -5.12064
          CHANNELS 3 Zrotation Xrotation Yrotation
          End Site
          {
            OFFSET -1.1221 -3.69964 12.103
          }
        }
      }
    }
  }
  JOINT lButtock
  {
    OFFSET 8.77824 4.35084 1.2192
    CHANNELS 3 Zrotation Xrotation Yrotation
    JOINT lThigh
    {
      OFFSET 0 -1.70687 -2.19456
      CHANNELS 3 Zrotation Xrotation Yrotation
      JOINT lShin
      {
        OFFSET 0 -36.8199 0.73152
        CHANNELS 3 Zrotation Xrotation Yrotation
        JOINT lFoot
        {
          OFFSET -0.73152 -45.1104 -5.12064
          CHANNELS 3 Zrotation Xrotation Yrotation
          End Site
          {
            OFFSET 1.1221 -3.69964 12.103
          }
        }
      }
    }
  }
}
MOTION
Frames:	4
Frame Time:	0.00833333
0.125314 84.062 -18.1479 0.0 0.0 0.0 -1.58418 -0.00301775 -0.0432193 -0.436997 0.000941908 -0.0756799 5.73676e-14 7.95139e-16 -2.48481e-17 1.7207e-13 9.54166e-15 2.01891e-17 -0.0 0.0 0.0 -0.0 0.0 0.0 2.88239e-14 9.58981e-17 1.49089e-16 6.04024e-13 2.05618e-15 2.78299e-15 1.03838e-11 -3.043e-12 -9.54166e-14 1.18904e-10 3.47448e-12 2.00375e-13 2.80469e-10 9.35164e-13 2.25819e-13 4.84347e-10 1.61254e-12 3.78486e-13 2.80473e-10 9.35878e-13 2.22639e-13 7.73091 5.47488 0.417314 2.80468e-10 9.34685e-13 2.3218e-13 2.90554 0.965183 0.102902 2.80474e-10 9.34984e-13 2.2741e-13 10.2786 0.731801 0.0259123 2.80461e-10 9.39059e-13 2.3218e-13 2.22167 -0.733487 -0.20892 2.86267e-14 9.60922e-17 -9.93923e-17 6.01765e-13 1.95679e-15 1.19271e-15 1.03923e-11 3.17519e-12 -8.5875e-14 1.18905e-10 -2.74691e-12 2.13097e-13 2.80492e-10 9.29293e-13 2.29e-13 4.84416e-10 1.60618e-12 3.87233e-13 2.80486e-10 9.29517e-13 2.38542e-13 -7.73091 5.47488 -0.417314 2.80493e-10 9.28623e-13 2.29e-13 -2.90554 0.965183 -0.102902 2.80488e-10 9.28821e-13 2.29795e-13 -10.2786 0.731801 -0.0259123 2.80499e-10 9.31505e-13 2.22639e-13 -2.22167 -0.733487 0.20892 -2.03217e-16 0.0 -3.88251e-19 -0.721106 -1.92343 -0.00509316 -0.00902364 -2.07859 -0.0743854 -0.480555 3.99756 0.135645 2.03217e-16 0.0 3.88251e-19 -1.69077 -6.62882 0.159129 -0.00275733 6.44486 -0.0755538 0.507483 0.179598 -0.0613078
-0.463678 82.6898 -19.2984 -3.4589 4.5239 5.1014 0.0517547 0.162185 -1.76862 -0.0424037 -0.906242 -0.559236 -2.636 1.69568 -3.28396 0.92815 -3.49495 -5.95775 -0.0 0.0 0.0 -0.0 0.0 0.0 -3.27399e-15 -9.75514e-14 -1.19887e-13 19.9766 3.50338 -0.226179 -4.23963 -1.9303 6.61766 0.000117938 0.241634 0.0339584 9.12234e-10 -2.11519e-09 1.6388e-10 1.57782e-09 -3.66085e-09 2.79973e-10 9.12239e-10 -2.11519e-09 1.63874e-10 7.73091 5.47488 0.417314 9.12234e-10 -2.11519e-09 1.63886e-10 2.90554 0.965183 0.102902 9.12241e-10 -2.11519e-09 1.63881e-10 10.2786 0.731801 0.0259123 9.12229e-10 -2.11519e-09 1.63887e-10 2.22167 -0.733487 -0.20892 -3.47286e-15 -9.7553e-14 -1.20208e-13 -21.5478 0.272247 2.0721 5.37897 -2.72993 -8.06778 -0.0243708 3.46414 -0.483644 6.607e-10 6.70321e-10 -7.84231e-10 1.13331e-09 1.15354e-09 -1.36231e-09 6.60695e-10 6.70322e-10 -7.84222e-10 -7.73091 5.47488 -0.417314 6.60701e-10 6.70321e-10 -7.84231e-10 -2.90554 0.965183 -0.102902 6.60696e-10 6.70321e-10 -7.84229e-10 -10.2786 0.731801 -0.0259123 6.60705e-10 6.70322e-10 -7.84235e-10 -2.22167 -0.733487 0.20892 -2.03217e-16 0.0 -3.88251e-19 1.23721 -6.91637 2.20298 0.0149798 6.75119 0.0872849 -0.86981 -0.426849 -3.87536 2.03217e-16 0.0 3.88251e-19 -1.19091 -10.2283 -2.30536 -0.0113424 13.1782 -0.187838 0.899261 -3.5973 3.14259
-0.409995 82.6883 -19.2974 -3.3658 4.5161 5.0959 1.7903 0.33664 -3.59204 0.354771 -1.86437 -1.0708 -5.21222 3.47385 -6.76598 1.12403 -7.06386 -12.3299 -0.0 0.0 0.0 -0.0 0.0 0.0 -4.05556e-14 -2.05947e-13 -2.5145e-13 41.1251 7.20764 -0.472549 -8.2389 -3.88415 13.6355 -6.87396e-05 0.494893 0.0695525 1.62535e-09 -4.44451e-09 3.54549e-10 2.81204e-09 -7.69227e-09 6.05907e-10 1.62536e-09 -4.44451e-09 3.54541e-10 7.73091 5.47488 0.417314 1.62535e-09 -4.44451e-09 3.54554e-10 2.90554 0.965183 0.102902 1.62536e-09 -4.44451e-09 3.5455e-10 10.2786 0.731801 0.0259123 1.62535e-09 -4.44451e-09 3.54557e-10 2.22167 -0.733487 -0.20892 -4.07593e-14 -2.0595e-13 -2.51851e-13 -44.3465 0.552227 4.27036 10.2388 -5.43621 -16.656 0.0138925 7.12189 -1.00034 1.09391e-09 1.40359e-09 -1.63378e-09 1.87312e-09 2.41544e-09 -2.83832e-09 1.09391e-09 1.40359e-09 -1.63377e-09 -7.73091 5.47488 -0.417314 1.09392e-09 1.40359e-09 -1.63378e-09 -2.90554 0.965183 -0.102902 1.09391e-09 1.40359e-09 -1.63378e-09 -10.2786 0.731801 -0.0259123 1.09392e-09 1.40359e-09 -1.63378e-09 -2.22167 -0.733487 0.20892 -2.03217e-16 0.0 -3.88251e-19 3.73314 -12.1624 4.60515 -0.0154676 16.0835 0.267343 -1.95458 -5.05388 -8.14741 2.03217e-16 0.0 3.88251e-19 -1.00988 -13.9945 -4.9835 0.0102256 20.2937 -0.316482 1.77558 -7.55192 6.57537
-0.346202 82.6867 -19.2907 -3.2792 4.5314 5.0652 3.35343 0.49078 -5.21958 0.700806 -2.71977 -1.52786 -7.32615 5.02014 -9.88587 0.615013 -10.0294 -18.1263 -0.0 0.0 0.0 -0.0 0.0 0.0 -6.74699e-14 -2.92846e-13 -3.5996e-13 60.0139 10.5095 -0.688824 -11.4058 -5.48253 19.9367 -0.000505524 0.724902 0.101882 2.17577e-09 -6.34744e-09 4.91189e-10 3.76477e-09 -1.09858e-08 8.39163e-10 2.17577e-09 -6.34744e-09 4.91178e-10 7.73091 5.47488 0.417314 2.17577e-09 -6.34744e-09 4.91193e-10 2.90554 0.965183 0.102902 2.17578e-09 -6.34744e-09 4.91189e-10 10.2786 0.731801 0.0259123 2.17577e-09 -6.34743e-09 4.91198e-10 2.22167 -0.733487 -0.20892 -6.7672e-14 -2.92851e-13 -3.60426e-13 -64.7023 0.812468 6.21685 13.8901 -7.54165 -24.4003 0.104805 10.3894 -1.47243 1.42112e-09 2.0091e-09 -2.35315e-09 2.43109e-09 3.45739e-09 -4.08771e-09 1.42111e-09 2.00911e-09 -2.35314e-09 -7.73091 5.47488 -0.417314 1.42112e-09 2.00911e-09 -2.35315e-09 -2.90554 0.965183 -0.102902 1.42111e-09 2.0091e-09 -2.35315e-09 -10.2786 0.731801 -0.0259123 1.42112e-09 2.0091e-09 -2.35315e-09 -2.22167 -0.733487 0.20892 -2.03217e-16 0.0 -3.88251e-19 6.35069 -16.803 6.86544 -0.0971164 24.4101 0.448833 -3.50938 -9.07764 -12.0495 2.03217e-16 0.0 3.88251e-19 -1.15783 -17.3125 -7.46209 0.0599328 26.6443 -0.445872 2.96344 -11.0112 9.71229
